<?xml version="1.0" encoding="UTF-8" standalone="no"?>
<svg
   xmlns:dc="http://purl.org/dc/elements/1.1/"
   xmlns:cc="http://creativecommons.org/ns#"
   xmlns:rdf="http://www.w3.org/1999/02/22-rdf-syntax-ns#"
   xmlns:svg="http://www.w3.org/2000/svg"
   xmlns="http://www.w3.org/2000/svg"
   xmlns:sodipodi="http://sodipodi.sourceforge.net/DTD/sodipodi-0.dtd"
   xmlns:inkscape="http://www.inkscape.org/namespaces/inkscape"
   class="ionicon"
   viewBox="0 0 512 512"
   version="1.1"
   id="svg6"
   sodipodi:docname="logo-twitter.svg"
   inkscape:version="1.0.1 (3bc2e813f5, 2020-09-07)">
  <metadata
     id="metadata12">
    <rdf:RDF>
      <cc:Work
         rdf:about="">
        <dc:format>image/svg+xml</dc:format>
        <dc:type
           rdf:resource="http://purl.org/dc/dcmitype/StillImage" />
      </cc:Work>
    </rdf:RDF>
  </metadata>
  <defs
     id="defs10" />
  <sodipodi:namedview
     pagecolor="#ffffff"
     bordercolor="#666666"
     borderopacity="1"
     objecttolerance="10"
     gridtolerance="10"
     guidetolerance="10"
     inkscape:pageopacity="0"
     inkscape:pageshadow="2"
     inkscape:window-width="2560"
     inkscape:window-height="1377"
     id="namedview8"
     showgrid="false"
     inkscape:zoom="2.0039062"
     inkscape:cx="256"
     inkscape:cy="256"
     inkscape:window-x="-8"
     inkscape:window-y="-8"
     inkscape:window-maximized="1"
     inkscape:current-layer="svg6" />
  <title
     id="title2">Logo Twitter</title>
  <path
     d="m 466.05848,78.061404 a 201.8,201.8 0 0 1 -56.55,15.3 97.51,97.51 0 0 0 43.33,-53.6 197.74,197.74 0 0 1 -62.56,23.5 99.14,99.14 0 0 0 -71.91,-30.7 c -54.42,0 -98.46,43.4 -98.46,96.899996 a 93.21,93.21 0 0 0 2.54,22.1 280.7,280.7 0 0 1 -203,-101.299996 95.69,95.69 0 0 0 -13.3900005,48.7 c 0,33.599996 17.5300005,63.299996 44.0000005,80.699996 a 97.5,97.5 0 0 1 -44.7800005,-12.1 v 1.2 c 0,47 34.0000005,86.1 79.0000005,95 a 100.76,100.76 0 0 1 -25.94,3.4 94.38,94.38 0 0 1 -18.51,-1.8 c 12.51,38.5 48.92,66.5 92.05,67.3 a 199.59,199.59 0 0 1 -122.3200005,41.5 203,203 0 0 1 -23.4999995,-1.4 278.68,278.68 0 0 0 150.74,43.8 c 181.36,0 280.44,-147.7 280.44,-275.8 0,-4.2 -0.11,-8.4 -0.31,-12.5 a 198.48,198.48 0 0 0 49.13,-50.199996 z"
     id="path4"
     style="fill:#000000;fill-opacity:1" />
</svg>
